# xmcd
#
# Track frame offsets:
#	150
#	8436
#	33487
#	65795
#	98097
#	117860
#	133738
#	153470
#	170075
#
# Disc length: 2447 seconds
#
# Revision: 2
# Processed by: cddbd v1.5.2PL0 Copyright (c) Steve Scherf et al.
# Submitted via: EZCDDA 4.3.2
#
DISCID=73098d09
DTITLE=Thin Lizzy - sss
DYEAR=1900
DGENRE=
TTITLE0=01 The Rise And Dear Demise Of The Funky Nomadic Tribes
TTITLE1=02 Buffalo Gal
TTITLE2=03 I Don't Want To Forget How To Jive
TTITLE3=Sarah
TTITLE4=05 Brought Down
TTITLE5=06 Baby Face
TTITLE6=07 Chatting Today
TTITLE7=08 Call The Police
TTITLE8=09 Shades Of A Blue Orphanage
EXTD=
EXTT0=
EXTT1=
EXTT2=
EXTT3=
EXTT4=
EXTT5=
EXTT6=
EXTT7=
EXTT8=
PLAYORDER=
